<?xml version="1.0" encoding="utf-8"?>
<!-- Generator: Adobe Illustrator 27.8.1, SVG Export Plug-In . SVG Version: 6.00 Build 0)  -->
<svg version="1.1" id="Layer_1" xmlns="http://www.w3.org/2000/svg" xmlns:xlink="http://www.w3.org/1999/xlink" x="0px" y="0px"
	 viewBox="0 0 504 504" style="enable-background:new 0 0 504 504;" xml:space="preserve">
<style type="text/css">
	.st0{fill:#1E65B1;stroke:#000000;stroke-width:3;stroke-miterlimit:10;}
	.st1{fill:#FFFFFF;}
	.st2{font-family:'HelveticaNeue-Italic';}
	.st3{font-size:54px;}
	.st4{fill:#FBD006;}
	.st5{fill:#F4B10F;}
	.st6{fill:#EAEAEA;}
	.st7{fill:#65341A;}
	.st8{fill:#425E6D;}
	.st9{fill:#E94C4E;}
	.st10{fill:#56C3EB;}
	.st11{fill:#76B82B;}
	.st12{fill:#D4D6D6;}
</style>
<polygon class="st0" points="278.6,456.1 125.2,367.5 125.2,190.3 278.6,101.8 432,190.3 432,367.5 "/>
<text transform="matrix(1 0 0 1 123.559 366.2553)" class="st1 st2 st3">tidyWearable</text>
<g>
	<path class="st4" d="M314.4,130.3c-1.1-3.8-5.5-6.9-9.5-6.9h-52.7c-4,0-8.2,3.1-9.5,6.9l-6,19.9c-1.1,3.8,1.1,6.9,5.1,6.9h73.4
		c4,0,6.4-3.1,5.1-6.9L314.4,130.3z M314.4,130.3"/>
	<path class="st5" d="M236.8,149.3c-1.1,3.8,1.1,6.9,5.1,6.9h73.4c4,0,6.4-3.1,5.1-6.9l-2.7-8.7h-78.4L236.8,149.3z M236.8,149.3"/>
	<path class="st4" d="M315.7,314.9c-1.1,3.8-5.5,6.9-9.5,6.9h-52.5c-4,0-8.2-3.1-9.5-6.9l-6-19.9c-1.1-3.8,1.1-6.9,5.1-6.9h73.3
		c4,0,6.4,3.1,5.1,6.9L315.7,314.9z M315.7,314.9"/>
	<path class="st5" d="M237.9,295.6c-1.1-3.8,1.1-6.9,5.1-6.9h73.3c4,0,6.4,3.1,5.1,6.9l-2.7,8.7h-78.4L237.9,295.6z M237.9,295.6"/>
	<path class="st6" d="M344.7,216.5c0,4-3.3,7.3-7.3,7.3h-4.6c-4,0-7.3-3.3-7.3-7.3v-21.9c0-4,3.3-7.3,7.3-7.3h4.6
		c4,0,7.3,3.3,7.3,7.3V216.5z M344.7,248.4c0,4-3.3,7.3-7.3,7.3h-4.6c-4,0-7.3-3.3-7.3-7.3v-3.6c0-4,3.3-7.3,7.3-7.3h4.6
		c4,0,7.3,3.3,7.3,7.3V248.4z M344.7,248.4"/>
	<path class="st7" d="M336.7,225.6h-3.8c-5.1,0-9.1-4-9.1-9.1v-21.9c0-5.1,4-9.1,9.1-9.1h3.8c5.1,0,9.1,4,9.1,9.1v21.9
		C345.8,221.4,341.8,225.6,336.7,225.6L336.7,225.6z M332.8,189.2c-3.1,0-5.5,2.4-5.5,5.5v21.9c0,3.1,2.4,5.5,5.5,5.5h3.8
		c3.1,0,5.5-2.4,5.5-5.5v-21.9c0-3.1-2.4-5.5-5.5-5.5H332.8z M336.7,257.5h-3.8c-5.1,0-9.1-4-9.1-9.1v-3.6c0-5.1,4-9.1,9.1-9.1h3.8
		c5.1,0,9.1,4,9.1,9.1v3.6C345.8,253.3,341.8,257.5,336.7,257.5L336.7,257.5z M332.8,239.3c-3.1,0-5.5,2.4-5.5,5.5v3.6
		c0,3.1,2.4,5.5,5.5,5.5h3.8c3.1,0,5.5-2.4,5.5-5.5v-3.6c0-3.1-2.4-5.5-5.5-5.5H332.8z M315.3,158.9h-73.4c-2.6,0-4.7-1.1-6-2.7
		c-1.3-1.8-1.6-4.2-0.9-6.6l6.2-20.8c1.5-4.7,6.2-8.4,11.1-8.4H305c4.9,0,9.7,3.6,11.1,8.2l6.2,21c0.7,2.4,0.4,4.7-0.9,6.6
		C320.1,157.8,317.9,158.9,315.3,158.9L315.3,158.9z M252.3,124.1c-3.3,0-6.7,2.6-7.7,5.6l-6.2,20.8c-0.4,1.3-0.2,2.6,0.4,3.3
		c0.5,0.9,1.6,1.3,3.1,1.3h73.4c1.3,0,2.4-0.5,3.1-1.3c0.5-0.9,0.7-2,0.4-3.3l-6.2-20.8c-0.9-3.1-4.4-5.6-7.7-5.6H252.3z
		 M306.4,324.6h-52.7c-4.9,0-9.7-3.6-11.1-8.2l-6.2-20.6c-0.7-2.4-0.4-4.7,0.9-6.6c1.3-1.8,3.5-2.7,6-2.7h73.3c2.6,0,4.7,1.1,6,2.7
		c1.3,1.8,1.6,4.2,0.9,6.6l-6.2,20.4C316.1,320.9,311.2,324.6,306.4,324.6L306.4,324.6z M243.4,290.1c-1.3,0-2.4,0.5-3.1,1.3
		c-0.5,0.9-0.7,2-0.4,3.3l6.2,20.4c0.9,3.1,4.4,5.6,7.7,5.6h52.7c3.3,0,6.7-2.6,7.7-5.6l6.2-20.4c0.4-1.3,0.2-2.6-0.4-3.3
		c-0.5-0.9-1.6-1.3-3.1-1.3H243.4z M243.4,290.1"/>
	<path class="st6" d="M337,277.5c0,8-6.6,14.6-14.6,14.6H235c-8,0-14.6-6.6-14.6-14.6V168.2c0-8,6.6-14.6,14.6-14.6h87.5
		c8,0,14.6,6.6,14.6,14.6V277.5z M337,277.5"/>
	<path class="st8" d="M324.6,268.4c0,6-4.9,10.9-10.9,10.9h-70.2c-6,0-10.9-4.9-10.9-10.9V177c0-6,4.9-10.9,10.9-10.9l70.2,0.4
		c6,0,10.9,4.9,10.9,10.9V268.4z M324.6,268.4"/>
	<path class="st6" d="M265.6,226.2c0,7,5.7,12.8,12.8,12.8s12.8-5.7,12.8-12.8c0-7-5.7-12.8-12.8-12.8S265.6,219.1,265.6,226.2
		L265.6,226.2z M265.6,226.2"/>
	<path class="st9" d="M267.4,195.2c0,6,4.9,10.9,10.9,10.9c6,0,10.9-4.9,10.9-10.9c0-6-4.9-10.9-10.9-10.9
		C272.3,184.2,267.4,189.1,267.4,195.2L267.4,195.2z M267.4,195.2"/>
	<path class="st10" d="M245.6,204.3c0,4,3.3,7.3,7.3,7.3c4,0,7.3-3.3,7.3-7.3c0-4-3.3-7.3-7.3-7.3
		C248.8,197,245.6,200.3,245.6,204.3L245.6,204.3z M245.6,204.3"/>
	<path class="st6" d="M249.2,185.2c0,3.5,2.9,6.4,6.4,6.4s6.4-2.9,6.4-6.4c0-3.5-2.9-6.4-6.4-6.4S249.2,181.6,249.2,185.2
		L249.2,185.2z M249.2,185.2"/>
	<path class="st9" d="M249.2,263.5c0,3.5,2.9,6.4,6.4,6.4s6.4-2.9,6.4-6.4c0-3.5-2.9-6.4-6.4-6.4S249.2,260,249.2,263.5L249.2,263.5
		z M249.2,263.5"/>
	<path class="st6" d="M245.6,244.4c0,4,3.3,7.3,7.3,7.3c4,0,7.3-3.3,7.3-7.3c0-4-3.3-7.3-7.3-7.3
		C248.8,237.1,245.6,240.4,245.6,244.4L245.6,244.4z M245.6,244.4"/>
	<path class="st11" d="M241.9,224.3c0,4,3.3,7.3,7.3,7.3c4,0,7.3-3.3,7.3-7.3c0-4-3.3-7.3-7.3-7.3
		C245.2,217,241.9,220.3,241.9,224.3L241.9,224.3z M241.9,224.3"/>
	<path class="st11" d="M296.6,204.3c0,4,3.3,7.3,7.3,7.3c4,0,7.3-3.3,7.3-7.3c0-4-3.3-7.3-7.3-7.3
		C299.8,197,296.6,200.3,296.6,204.3L296.6,204.3z M296.6,204.3"/>
	<path class="st4" d="M294.8,185.2c0,3.5,2.9,6.4,6.4,6.4s6.4-2.9,6.4-6.4c0-3.5-2.9-6.4-6.4-6.4S294.8,181.6,294.8,185.2
		L294.8,185.2z M294.8,185.2"/>
	<path class="st12" d="M322.4,286.3H235c-8,0-14.6-6.6-14.6-14.6v5.1c0,8,6.6,14.9,14.6,14.9h87.5c8,0,14.6-6.9,14.6-14.9v-5.1
		C337,279.7,330.5,286.3,322.4,286.3L322.4,286.3z M322.4,286.3"/>
	<path class="st6" d="M294.8,263.5c0,3.5,2.9,6.4,6.4,6.4s6.4-2.9,6.4-6.4c0-3.5-2.9-6.4-6.4-6.4S294.8,260,294.8,263.5L294.8,263.5
		z M294.8,263.5"/>
	<path class="st10" d="M296.6,244.4c0,4,3.3,7.3,7.3,7.3c4,0,7.3-3.3,7.3-7.3c0-4-3.3-7.3-7.3-7.3
		C299.8,237.1,296.6,240.4,296.6,244.4L296.6,244.4z M296.6,244.4"/>
	<path class="st6" d="M300.2,224.3c0,4,3.3,7.3,7.3,7.3c4,0,7.3-3.3,7.3-7.3c0-4-3.3-7.3-7.3-7.3C303.5,217,300.2,220.3,300.2,224.3
		L300.2,224.3z M300.2,224.3"/>
	<path class="st4" d="M267.4,257.1c0,6,4.9,10.9,10.9,10.9c6,0,10.9-4.9,10.9-10.9c0-6-4.9-10.9-10.9-10.9
		C272.3,246.2,267.4,251.1,267.4,257.1L267.4,257.1z M267.4,257.1"/>
	<path class="st7" d="M322.1,295.4h-87.5c-9.1,0-16.4-7.3-16.4-16.4V167.9c0-9.1,7.3-16.4,16.4-16.4h87.5c9.1,0,16.4,7.3,16.4,16.4
		V279C338.5,288.1,331.2,295.4,322.1,295.4L322.1,295.4z M234.6,155.1c-7.1,0-12.8,5.6-12.8,12.8V279c0,7.1,5.6,12.8,12.8,12.8h87.5
		c7.1,0,12.8-5.6,12.8-12.8V167.9c0-7.1-5.6-12.8-12.8-12.8H234.6z M234.6,155.1"/>
	<path class="st7" d="M313,280.8h-69.4c-7.1,0-12.6-5.6-12.6-12.8v-89.3c0-7.1,5.5-12.8,12.6-12.8H313c7.1,0,12.8,5.6,12.8,12.8
		v89.3C325.7,275.2,320.1,280.8,313,280.8L313,280.8z M243.5,169.7c-5.1,0-9.1,4-9.1,9.1v89.3c0,5.1,4,9.1,9.1,9.1H313
		c5.1,0,9.1-4,9.1-9.1v-89.3c0-5.1-4-9.1-9.1-9.1H243.5z M243.5,169.7"/>
	<path class="st1" d="M331.6,275.4c-1.1,0-1.8-0.7-1.8-1.8V169.7c0-5.1-4-9.1-9.1-9.1h-49.9c-1.1,0-1.8-0.7-1.8-1.8
		c0-1.1,0.7-1.8,1.8-1.8h49.9c7.1,0,12.8,5.6,12.8,12.8v103.9C333.4,274.6,332.5,275.4,331.6,275.4L331.6,275.4z M257.4,160.6h-20.8
		c-1.1,0-1.8-0.7-1.8-1.8c0-1.1,0.7-1.8,1.8-1.8h20.8c1.1,0,1.8,0.7,1.8,1.8C259.2,159.8,258.5,160.6,257.4,160.6L257.4,160.6z
		 M304.4,131.4h-50.7c-1.1,0-1.8-0.7-1.8-1.8c0-1.1,0.7-1.8,1.8-1.8h50.7c1.1,0,1.8,0.7,1.8,1.8
		C306.2,130.7,305.5,131.4,304.4,131.4L304.4,131.4z M307,317.3h-23.1c-1.1,0-1.8-0.7-1.8-1.8c0-1.1,0.7-1.8,1.8-1.8H307
		c1.1,0,1.8,0.7,1.8,1.8C308.8,316.5,307.9,317.3,307,317.3L307,317.3z M272.9,317.3h-13.3c-1.1,0-1.8-0.7-1.8-1.8
		c0-1.1,0.7-1.8,1.8-1.8h13.3c1.1,0,1.8,0.7,1.8,1.8C274.7,316.5,274,317.3,272.9,317.3L272.9,317.3z M272.9,317.3"/>
</g>
</svg>
